<svg width="1440" height="154" viewBox="0 0 1440 154" fill="none" xmlns="http://www.w3.org/2000/svg">
<path d="M0 15C0 6.71573 6.71573 0 15 0H1425C1433.28 0 1440 6.71573 1440 15V154H0V15Z" fill="#0F1035"/>
<path d="M454.1 58.8706V58.4243L455.814 60.1711C456.646 61.0188 457.307 62.0166 457.745 63.1332C458.326 64.5967 458.57 66.8008 458.679 68.9824C458.79 71.2035 458.764 73.5512 458.743 75.3689L458.743 75.3804L458.743 75.3804C458.729 75.9817 458.729 76.5139 458.729 76.9857C458.729 77.2003 458.732 77.4344 458.735 77.6915L458.736 77.7387C458.739 78.0101 458.743 78.3032 458.743 78.6084C458.764 80.4323 458.79 82.781 458.679 84.9998C458.57 87.1804 458.326 89.3819 457.744 90.8394C457.312 91.9433 456.666 92.9645 455.8 93.8138C454.953 94.6455 453.955 95.3072 452.839 95.7445C452.838 95.7448 452.837 95.7452 452.836 95.7455L452.471 94.8143C449.886 95.8429 444.271 95.7857 440.629 95.7429L454.1 58.8706ZM454.1 58.8706C453.697 58.6322 453.274 58.426 452.837 58.2548M454.1 58.8706L452.837 58.2548M452.837 58.2548C451.376 57.6817 449.169 57.4369 446.983 57.3263C444.761 57.2139 442.413 57.2358 440.594 57.2571C440.296 57.2572 440.01 57.2608 439.744 57.2644L439.703 57.2649C439.449 57.2683 439.216 57.2714 439 57.2714C438.528 57.2714 437.982 57.2714 437.395 57.2574L437.395 57.2574L437.383 57.2572C435.566 57.2358 433.221 57.2102 431.004 57.3209C428.825 57.4296 426.625 57.6741 425.162 58.2555C424.045 58.6928 423.047 59.3545 422.2 60.1862C421.333 61.0364 420.687 62.0586 420.255 63.1638L452.837 58.2548ZM419.257 78.5696L419.257 78.5613C419.271 77.9894 419.271 77.458 419.271 77C419.271 76.7926 419.268 76.5658 419.265 76.3157L419.264 76.2688C419.261 76.004 419.257 75.7171 419.257 75.4183L419.256 75.2814C419.242 73.4859 419.224 71.195 419.332 69.0254C419.44 66.8371 419.681 64.6261 420.254 63.1642L419.257 78.5696ZM419.257 78.5696L419.257 78.5779M419.257 78.5696L419.257 78.5779M419.257 78.5779L419.256 78.7186M419.257 78.5779L419.256 78.7186M419.256 78.7186C419.242 80.5141 419.224 82.805 419.332 84.9746M419.256 78.7186L419.332 84.9746M419.332 84.9746C419.44 87.1633 419.681 89.3746 420.255 90.8366L419.332 84.9746ZM433.042 85.9116L433.041 85.9113C430.678 84.3328 429.038 81.8801 428.483 79.0927C427.928 76.3054 428.503 73.4117 430.082 71.0483C431.66 68.6848 434.113 67.0453 436.9 66.4903C439.688 65.9352 442.581 66.5102 444.945 68.0887L445.197 68.2571H445.203C447.435 69.8405 448.98 72.2205 449.515 74.9118C450.069 77.7005 449.492 80.595 447.912 82.9585C447.129 84.1287 446.124 85.1334 444.953 85.9152C443.782 86.697 442.469 87.2405 441.088 87.5147C438.299 88.0685 435.405 87.4918 433.042 85.9116ZM452.797 65.4642L453.729 65.8286L452.797 65.4642C452.729 65.6397 452.599 65.8335 452.416 66.0277C452.287 66.1642 452.095 66.2944 451.858 66.3972C451.66 66.4834 451.439 66.5286 451.214 66.5286C450.863 66.5286 450.532 66.427 450.261 66.2435L450.111 66.1419C449.887 65.9577 449.706 65.7187 449.591 65.4489C449.463 65.1521 449.429 64.8122 449.498 64.4383C449.557 64.1178 449.72 63.8184 449.977 63.5508C450.194 63.3255 450.503 63.1613 450.843 63.0969C451.199 63.0296 451.551 63.0631 451.849 63.1906C452.185 63.3345 452.458 63.5583 452.644 63.8323C452.827 64.1032 452.929 64.4349 452.929 64.7857C452.929 65.0115 452.883 65.2453 452.797 65.4642ZM448.378 98.7013L448.372 98.7016C444.638 98.9137 433.362 98.9137 429.628 98.7016L429.622 98.7013C426.091 98.522 423.133 97.719 420.707 95.2929C418.281 92.8671 417.479 89.9099 417.313 86.3817L417.313 86.3718C417.101 82.6382 417.101 71.3618 417.313 67.6282L417.313 67.6282L417.313 67.6221C417.492 64.0876 418.283 61.1316 420.707 58.7071C423.133 56.2816 426.104 55.4786 429.618 55.3132L429.618 55.3132L429.628 55.3127C433.362 55.1005 444.638 55.1005 448.372 55.3127L448.378 55.313C451.912 55.4925 454.868 56.2826 457.293 58.7071C459.719 61.1329 460.521 64.0901 460.687 67.6183L460.687 67.6284C460.899 71.3474 460.899 82.6096 460.687 86.3578L460.687 86.3636C460.508 89.8981 459.717 92.8541 457.293 95.2786L457 95.5715V95.5756C454.63 97.782 451.768 98.5291 448.378 98.7013ZM434.216 69.8401C433.274 70.4693 432.466 71.2778 431.838 72.2193C431.209 73.1608 430.772 74.2169 430.551 75.3274C430.106 77.57 430.569 79.8978 431.84 81.7986C433.111 83.6995 435.085 85.0176 437.327 85.4631C439.57 85.9086 441.898 85.445 443.799 84.1742C445.699 82.9034 447.018 80.9296 447.463 78.6869C447.909 76.4442 447.445 74.1165 446.174 72.2156C444.903 70.3148 442.93 68.9967 440.687 68.5512C438.444 68.1057 436.116 68.5693 434.216 69.8401ZM472 54.1429C472 48.5477 467.452 44 461.857 44H416.143C410.548 44 406 48.5477 406 54.1429V99.8571C406 105.452 410.548 110 416.143 110H461.857C467.452 110 472 105.452 472 99.8571V54.1429Z" fill="#EEF5FF" stroke="black" stroke-width="2"/>
<g clip-path="url(#clip0_13_243)">
<rect x="591" y="45" width="64" height="64" rx="10" fill="#EEF5FF"/>
<path d="M655 77C655 59.325 640.675 45 623 45C605.325 45 591 59.325 591 77C591 92 601.337 104.6 615.275 108.062V86.775H608.675V77H615.275V72.7875C615.275 61.9 620.2 56.85 630.9 56.85C632.925 56.85 636.425 57.25 637.862 57.65V66.5C637.112 66.425 635.8 66.375 634.162 66.375C628.912 66.375 626.888 68.3625 626.888 73.525V77H637.338L635.537 86.775H626.875V108.763C642.725 106.85 655 93.3625 655 77Z" fill="black"/>
</g>
<rect x="775" y="49" width="69" height="57" rx="10" fill="white"/>
<path d="M782.667 51C778.438 51 775 54.3953 775 58.5714V96.4286C775 100.605 778.438 104 782.667 104H836.333C840.562 104 844 100.605 844 96.4286V58.5714C844 54.3953 840.562 51 836.333 51H782.667ZM792.25 81.2857H799.917C805.211 81.2857 809.5 85.521 809.5 90.75C809.5 91.7911 808.638 92.6429 807.583 92.6429H784.583C783.529 92.6429 782.667 91.7911 782.667 90.75C782.667 85.521 786.955 81.2857 792.25 81.2857ZM788.417 69.9286C788.417 67.9205 789.224 65.9947 790.662 64.5748C792.1 63.1548 794.05 62.3571 796.083 62.3571C798.117 62.3571 800.067 63.1548 801.504 64.5748C802.942 65.9947 803.75 67.9205 803.75 69.9286C803.75 71.9366 802.942 73.8625 801.504 75.2824C800.067 76.7023 798.117 77.5 796.083 77.5C794.05 77.5 792.1 76.7023 790.662 75.2824C789.224 73.8625 788.417 71.9366 788.417 69.9286ZM819.083 66.1429H834.417C835.471 66.1429 836.333 66.9946 836.333 68.0357C836.333 69.0768 835.471 69.9286 834.417 69.9286H819.083C818.029 69.9286 817.167 69.0768 817.167 68.0357C817.167 66.9946 818.029 66.1429 819.083 66.1429ZM819.083 73.7143H834.417C835.471 73.7143 836.333 74.5661 836.333 75.6071C836.333 76.6482 835.471 77.5 834.417 77.5H819.083C818.029 77.5 817.167 76.6482 817.167 75.6071C817.167 74.5661 818.029 73.7143 819.083 73.7143ZM819.083 81.2857H834.417C835.471 81.2857 836.333 82.1375 836.333 83.1786C836.333 84.2196 835.471 85.0714 834.417 85.0714H819.083C818.029 85.0714 817.167 84.2196 817.167 83.1786C817.167 82.1375 818.029 81.2857 819.083 81.2857Z" fill="black"/>
<rect x="964" y="44" width="85" height="64" rx="10" fill="white"/>
<path d="M964 50C964 46.6875 966.788 44 970.225 44H1011.73C1015.16 44 1017.95 46.6875 1017.95 50V56H1024.53C1026.73 56 1028.84 56.8375 1030.4 58.3375L1040.42 68C1041.98 69.5 1042.85 71.5375 1042.85 73.6625V76V80V88C1045.15 88 1047 89.7875 1047 92C1047 94.2125 1045.15 96 1042.85 96H1038.7C1038.7 102.625 1033.12 108 1026.25 108C1019.38 108 1013.8 102.625 1013.8 96H997.2C997.2 102.625 991.623 108 984.75 108C977.877 108 972.3 102.625 972.3 96H970.225C966.788 96 964 93.3125 964 90V50ZM1017.95 76H1034.55V73.6625L1024.53 64H1017.95V76ZM984.75 102C986.401 102 987.984 101.368 989.152 100.243C990.319 99.1174 990.975 97.5913 990.975 96C990.975 94.4087 990.319 92.8826 989.152 91.7574C987.984 90.6321 986.401 90 984.75 90C983.099 90 981.516 90.6321 980.348 91.7574C979.181 92.8826 978.525 94.4087 978.525 96C978.525 97.5913 979.181 99.1174 980.348 100.243C981.516 101.368 983.099 102 984.75 102ZM1032.47 96C1032.47 94.4087 1031.82 92.8826 1030.65 91.7574C1029.48 90.6321 1027.9 90 1026.25 90C1024.6 90 1023.02 90.6321 1021.85 91.7574C1020.68 92.8826 1020.03 94.4087 1020.03 96C1020.03 97.5913 1020.68 99.1174 1021.85 100.243C1023.02 101.368 1024.6 102 1026.25 102C1027.9 102 1029.48 101.368 1030.65 100.243C1031.82 99.1174 1032.47 97.5913 1032.47 96ZM986.825 54V60H980.6C979.459 60 978.525 60.9 978.525 62V66C978.525 67.1 979.459 68 980.6 68H986.825V74C986.825 75.1 987.759 76 988.9 76H993.05C994.191 76 995.125 75.1 995.125 74V68H1001.35C1002.49 68 1003.42 67.1 1003.42 66V62C1003.42 60.9 1002.49 60 1001.35 60H995.125V54C995.125 52.9 994.191 52 993.05 52H988.9C987.759 52 986.825 52.9 986.825 54Z" fill="black"/>
<defs>
<clipPath id="clip0_13_243">
<rect x="591" y="45" width="64" height="64" rx="10" fill="white"/>
</clipPath>
</defs>
</svg>
